<?xml version="1.0" encoding="UTF-8" standalone="no"?>
<svg
   version="1.1"
   id="Layer_1"
   x="0px"
   y="0px"
   width="100%"
   viewBox="0 0 1003 1015"
   enable-background="new 0 0 1003 1015"
   xml:space="preserve"
   sodipodi:docname="eaglecorps-logo.svg"
   inkscape:version="1.3 (0e150ed6c4, 2023-07-21)"
   xmlns:inkscape="http://www.inkscape.org/namespaces/inkscape"
   xmlns:sodipodi="http://sodipodi.sourceforge.net/DTD/sodipodi-0.dtd"
   xmlns="http://www.w3.org/2000/svg"
   xmlns:svg="http://www.w3.org/2000/svg"><defs
   id="defs5" /><sodipodi:namedview
   id="namedview5"
   pagecolor="#ffffff"
   bordercolor="#999999"
   borderopacity="1"
   inkscape:showpageshadow="0"
   inkscape:pageopacity="0"
   inkscape:pagecheckerboard="0"
   inkscape:deskcolor="#d1d1d1"
   inkscape:zoom="1.0153114"
   inkscape:cx="464.38953"
   inkscape:cy="496.39941"
   inkscape:window-width="1920"
   inkscape:window-height="1134"
   inkscape:window-x="0"
   inkscape:window-y="0"
   inkscape:window-maximized="1"
   inkscape:current-layer="Layer_1" />&#10;&#10;<path
   fill="#0b94ea"
   opacity="1"
   stroke="none"
   d="m 882.16986,548.23126 c -34.20764,92.38403 -81.67358,176.91614 -142.8194,253.62012 -58.4295,73.29675 -126.76098,135.79492 -206.12207,185.96753 -8.02276,5.07196 -16.34594,9.66785 -24.38961,14.70819 -2.4469,1.5333 -4.17359,1.4542 -6.67194,0.024 C 462.14105,979.63684 424.7951,952.9743 389.53445,923.26135 330.54089,873.54944 279.54013,816.58649 235.76006,753.22687 196.31714,696.14417 163.65388,635.30902 137.89406,570.80621 112.33823,506.81409 93.57502,440.93332 82.92231,372.84451 71.951157,302.72031 69.391083,232.29275 76.62072,161.58997 c 0.31533,-3.08376 1.465782,-4.6406 4.209854,-5.93192 C 138.74792,128.40291 197.17888,102.31733 257.91568,81.918861 309.34726,64.645554 362.02496,52.893135 416.11401,47.048122 c 43.36194,-4.685806 86.71677,-6.648281 130.20197,-4.22084 84.8125,4.734417 166.63086,23.622692 246.19055,53.031849 46.96863,17.361899 92.38898,38.094029 136.79938,61.146099 3.06439,1.59063 4.25433,3.48961 4.58636,6.84479 4.5235,45.71019 4.95746,91.44678 1.91577,137.2787 -4.43402,66.81061 -17.06689,132.07767 -36.34979,196.09424 -5.13757,17.05597 -11.39831,33.77362 -17.28839,51.0083 M 468.45734,667.9483 c 18.94253,-20.09552 27.43243,-44.42853 28.45748,-71.57055 0.45841,-12.1377 0.30753,-24.32361 -0.17379,-36.46363 -0.38187,-9.63134 -1.84009,-19.14495 -6.97904,-27.7182 -8.63019,-14.3977 -22.151,-21.05215 -37.88403,-24.12997 -21.6409,-4.23349 -43.08545,-1.66638 -64.38797,2.5531 -42.18673,4.53573 -81.52994,19.56101 -116.55731,40.40585 -12.06673,-41.66986 -6.86526,-91.70317 -3.0467,-105.37007 9.8855,-35.38091 11.04467,-39.08565 24.20576,-63.04694 6.8974,-12.55753 25.74966,-31.37779 39.3316,-37.58104 24.34677,-11.11987 77.96859,-22.22731 102.428,-33.08834 31.00198,-13.7662 33.21134,-26.59857 62.53373,-43.83005 37.78937,-22.2072 78.93121,-31.36369 122.12939,-31.72611 36.01868,-0.30218 71.7356,4.19954 106.79664,12.40352 43.16455,10.10012 86.10125,21.17403 129.13824,31.8196 3.12341,0.77258 6.26184,1.48447 9.53503,2.25809 0.10334,-1.07532 0.245,-1.56699 0.18152,-2.03055 -3.59051,-26.22141 -7.26056,-52.43222 -10.72686,-78.66995 -0.44818,-3.39216 -2.24836,-4.71608 -5.04163,-5.9459 -99.62598,-43.86427 -203.68243,-69.31447 -312.43494,-75.24477 -62.98706,-3.4347 -125.44479,0.22214 -187.31491,13.23409 -70.59854,14.84766 -136.3593,40.95354 -195.87196,82.14157 -2.89499,2.00357 -4.26712,4.11 -4.43779,7.64443 -1.43994,29.81984 -1.27475,59.58455 0.85414,89.39848 5.26195,73.68985 24.1815,144.04337 51.47498,212.30173 18.21093,45.54382 40.37379,89.24194 65.21235,131.51983 14.76309,25.12842 30.42609,49.72815 45.68338,74.56629 1.15018,1.87244 1.98581,3.35779 5.01166,2.4483 26.73471,-8.03509 53.79157,-15.07971 80.2587,-23.90088 26.51202,-8.83612 51.61285,-20.79907 71.62433,-42.37793 m 222.14489,-14.05694 c 10.08667,15.34778 20.17334,30.69555 30.68885,46.6958 30.27661,-54.71741 16.89687,-112.20088 47.02816,-166.65565 -38.29089,-55.54167 -86.7204,-90.70884 -177.39432,-130.03885 47.99555,-7.2413 112.09378,9.12742 145.1131,22.736 32.25672,13.29428 62.90656,30.22333 94.89515,45.685 8.75757,-35.61755 17.62091,-71.66495 26.45532,-107.59491 -1.63123,-0.77591 -2.34711,-1.22943 -3.12854,-1.47192 -39.36279,-12.21445 -78.62018,-24.78592 -118.13635,-36.48322 -28.4029,-8.40765 -57.51624,-13.72629 -87.04401,-16.50912 -19.81293,-1.86722 -39.61151,-1.29853 -59.33667,1.05807 -10.7569,1.28516 -20.7392,4.41208 -30.15747,10.54126 -19.93378,12.97244 -40.25116,25.42438 -60.95529,37.12717 -27.41263,15.49481 -56.88101,24.65298 -88.59091,26.28009 -13.28162,0.68152 -26.39161,2.85602 -38.73523,8.49048 -14.80347,6.75732 -32.7614,18.17561 -42.36828,30.89979 -9.0462,14.24437 -16.33205,33.73293 -16.56965,55.27366 2.95017,0.13618 30.86538,-13.45324 61.25806,-16.23839 31.53759,-2.89002 63.05615,-4.8454 94.61654,-0.65467 18.04105,2.39554 35.48535,7.07053 51.84317,15.17117 42.07709,20.83738 76.29456,51.30622 106.2638,86.98469 23.39221,27.84857 43.91009,57.76257 64.25457,88.70355 M 419.60455,764.05389 c -21.40283,9.6781 -42.80563,19.3562 -64.36087,29.10321 50.48007,42.61225 100.85254,85.13367 151.52078,127.90479 17.2226,-15.40448 34.64783,-30.40509 51.41578,-46.1076 37.20684,-34.8426 74.06402,-70.05842 111.13971,-105.04157 2.57525,-2.42993 3.05633,-4.27808 1.36584,-7.61725 -32.86975,-64.92804 -68.73517,-128.15808 -107.21509,-189.91565 -4.96795,-7.97326 -9.91827,-15.95764 -15.13891,-24.3587 -0.54059,1.25042 -0.94293,1.83081 -1.0412,2.4588 -9.81168,31.43596 -5.82864,80.60142 -18.41626,110.32916 -8.67627,18.24079 -20.82935,34.42944 -34.61444,49.24573 -21.13614,22.71729 -46.39893,39.8208 -74.65534,53.99908 z"
   id="path2"
   sodipodi:nodetypes="cssscssssscssssssssccssssscsssssssscsscsssssssscscccccscccsssssssscssssccccsscscccsc" />&#10;&#10;&#10;&#10;</svg>
